<mxfile host="app.diagrams.net" modified="2024-05-23T08:38:22.225Z" agent="Mozilla/5.0 (Macintosh; Intel Mac OS X 10_15_7) AppleWebKit/605.1.15 (KHTML, like Gecko) Version/17.2.1 Safari/605.1.15" version="24.4.6" etag="mAXOKZgOUBsftJMDldww" type="github">
  <diagram name="第 1 页" id="PcLBTrZ3ltSqRokpiHOY">
    <mxGraphModel>
      <root>
        <mxCell id="0" />
        <mxCell id="1" parent="0" />
      </root>
    </mxGraphModel>
  </diagram>
</mxfile>
